<svg width="294" height="161" viewBox="0 0 294 161" fill="none" xmlns="http://www.w3.org/2000/svg">
<path d="M0.999268 124.956C5.20445 113.445 9.70672 102.199 13.6148 90.422C17.6121 78.376 22.2144 66.7068 21.6758 52.7007C21.6101 50.9937 20.1949 49.8326 20.2299 48.1232C20.2542 46.9356 21.1666 46.1918 21.8204 45.6316C23.9957 43.7679 26.3187 42.3772 28.6161 40.9382C37.8554 35.151 47.3456 29.6018 56.8475 25.0037C59.6966 23.625 62.5549 21.6245 61.2214 27.3794C60.324 31.2521 59.0058 34.4017 63.1372 33.4635C71.4074 31.5854 79.8333 25.6238 87.4646 20.5421C92.85 16.956 98.5016 9.59806 104.273 7.85242C111.592 5.63896 118.889 0.316336 126.323 1.07303C141.306 2.59788 156.383 2.61452 171.327 5.01319C174.692 5.55323 178.059 6.31288 181.34 7.62065C182.885 8.23624 183.909 11.2114 185.497 11.387C189.586 11.839 194.648 7.83149 198.366 5.70851C199.688 4.95362 200.995 4.13553 202.306 3.33283C203.381 2.67451 205.316 -0.137173 205.595 1.65246C205.927 3.78063 202.47 6.04598 204.439 8.95335C207.603 13.6267 214.534 8.892 217.018 14.9795C221.372 25.647 208.332 41.9456 220.777 45.6896C230.415 48.5889 240.421 46.7779 250.057 49.7456C257.833 52.1404 257.676 54.728 259.094 64.9268C260.022 71.6012 262.831 69.9493 266.071 71.8801C269.258 73.7794 269.454 77.255 270.3 81.8464C270.891 85.0569 271.609 84.4965 273.192 86.366C278.738 92.9173 283.333 99.5014 290 103.228C294.04 105.485 294.133 105.092 289.458 108.732C281.346 115.048 273.128 120.981 265.095 127.564C262.69 129.534 260.275 131.48 257.937 133.648C256.281 135.184 252.773 136.908 253.6 139.674C254.105 141.366 258.892 140.588 259.709 140.543C260.443 140.503 262.63 140.222 261.914 140.485C252.377 143.994 242.648 146.438 233.032 149.235C222.001 152.442 211.015 155.778 200.034 159.343C198.427 159.92 197.402 160.2 198.51 159.838C199.018 159.673 199.526 159.507 200.034 159.343C201.799 158.708 204.267 157.716 205.379 156.825C206.973 155.547 201.956 154.837 200.173 154.855C186.594 154.997 173 156.731 159.435 157.579C157.581 157.694 139.705 161.439 136.626 156.362C135.354 154.265 145.319 138.529 141.831 140.949C138.836 143.026 135.879 146.348 133.336 149.582C132.932 150.096 132.322 151.522 132.144 152.404C132.48 152.716 132.648 153.013 132.36 153.117C132.079 153.218 132.044 152.896 132.144 152.404C131.703 151.995 130.972 151.559 130.589 151.495C118.716 149.501 106.655 149.367 94.7303 149.061C92.1641 148.995 89.5974 148.983 87.0309 148.945C85.7175 148.925 84.4036 148.947 83.0908 148.887C82.7156 148.87 81.9287 149.311 81.9702 148.713C82.0058 148.199 87.2975 147.493 87.5731 147.438C91.9578 146.575 86.7482 146.844 85.9464 146.859C78.4751 146.995 70.963 148.522 63.4987 148.25C59.3093 148.097 56.3848 147.948 57.3897 140.833C58.0853 135.909 56.1522 137.13 53.1966 138.515C46.1984 141.794 39.6282 147.107 33.243 152.653C32.3967 153.389 26.7015 161.218 25.2905 157.637C21.8016 148.782 11.762 134.968 5.55388 146.164C1.56537 153.356 1.11531 128.304 0.999268 124.956Z" fill="#EEF5FF" stroke="#EEF5FF" stroke-linecap="round"/>
</svg>
